<svg width="222" height="274" viewBox="0 0 222 274" fill="none" xmlns="http://www.w3.org/2000/svg">
<path d="M105.276 242.2L221.105 126.345H136.883L63.1787 200.076L105.276 242.2Z" fill="#39CEFD"/>
<path d="M0 136.89L136.89 0H221.112L42.1241 179.014L0 136.89Z" fill="#39CEFD"/>
<path d="M136.883 273.778H221.105L147.401 200.074L105.277 242.198L136.883 273.778Z" fill="#03569B"/>
<path d="M147.401 200.074L105.277 242.198L167.751 220.556L147.401 200.074Z" fill="url(#paint0_linear_856_1310)"/>
<path d="M63.1787 200.051L105.303 157.927L147.427 200.051L105.303 242.202L63.1787 200.051Z" fill="#16B9FD"/>
<path d="M221.112 126.346L147.408 200.076L221.112 273.807H136.89L63.1599 200.076L136.89 126.346H221.112ZM136.89 0L0 136.89L42.1241 179.014L221.112 0C221.112 0 136.89 0 136.89 0Z" fill="url(#paint1_radial_856_1310)"/>
<defs>
<linearGradient id="paint0_linear_856_1310" x1="-6576.06" y1="-6653.95" x2="-6576.01" y2="-6654" gradientUnits="userSpaceOnUse">
<stop stop-color="#1A237E" stop-opacity="0.4"/>
<stop offset="1" stop-color="#1A237E" stop-opacity="0"/>
</linearGradient>
<radialGradient id="paint1_radial_856_1310" cx="0" cy="0" r="1" gradientUnits="userSpaceOnUse" gradientTransform="translate(-6982.06 -7118.12) scale(0.00181969)">
<stop stop-color="white" stop-opacity="0.1"/>
<stop offset="1" stop-color="white" stop-opacity="0"/>
</radialGradient>
</defs>
</svg>
